<?xml version="1.0" encoding="UTF-8" standalone="no"?>
<!-- Created with Inkscape (http://www.inkscape.org/) -->

<svg
   xmlns:dc="http://purl.org/dc/elements/1.1/"
   xmlns:cc="http://creativecommons.org/ns#"
   xmlns:rdf="http://www.w3.org/1999/02/22-rdf-syntax-ns#"
   xmlns:svg="http://www.w3.org/2000/svg"
   xmlns="http://www.w3.org/2000/svg"
   xmlns:sodipodi="http://sodipodi.sourceforge.net/DTD/sodipodi-0.dtd"
   xmlns:inkscape="http://www.inkscape.org/namespaces/inkscape"
   width="210mm"
   height="297mm"
   viewBox="0 0 210 297"
   version="1.1"
   id="svg8"
   inkscape:version="0.92.0 r15299"
   sodipodi:docname="Sprites.svg">
  <defs
     id="defs2" />
  <sodipodi:namedview
     id="base"
     pagecolor="#ffffff"
     bordercolor="#666666"
     borderopacity="1.0"
     inkscape:pageopacity="0.0"
     inkscape:pageshadow="2"
     inkscape:zoom="2"
     inkscape:cx="278.39868"
     inkscape:cy="887.67425"
     inkscape:document-units="mm"
     inkscape:current-layer="layer1"
     showgrid="false"
     inkscape:window-width="1920"
     inkscape:window-height="1017"
     inkscape:window-x="-8"
     inkscape:window-y="-8"
     inkscape:window-maximized="1" />
  <metadata
     id="metadata5">
    <rdf:RDF>
      <cc:Work
         rdf:about="">
        <dc:format>image/svg+xml</dc:format>
        <dc:type
           rdf:resource="http://purl.org/dc/dcmitype/StillImage" />
        <dc:title></dc:title>
      </cc:Work>
    </rdf:RDF>
  </metadata>
  <g
     inkscape:label="Ebene 1"
     inkscape:groupmode="layer"
     id="layer1">
    <path
       style="opacity:1;vector-effect:none;fill:#ffffff;fill-opacity:1;fill-rule:nonzero;stroke:#252525;stroke-width:3.99866672;stroke-linecap:round;stroke-linejoin:round;stroke-miterlimit:4;stroke-dasharray:none;stroke-dashoffset:0;stroke-opacity:1;paint-order:normal"
       d="M 342 126.51953 A 46.999998 76.047601 0 0 0 309.79102 147.25 A 46.999998 76.047601 0 0 0 288 138.51953 A 46.999998 76.047601 0 0 0 268.91016 145.17969 A 46.999998 76.047601 0 0 0 243 132.51953 A 46.999998 76.047601 0 0 0 196 208.56641 A 46.999998 76.047601 0 0 0 243 284.61523 A 46.999998 76.047601 0 0 0 262.08984 277.95508 A 46.999998 76.047601 0 0 0 288 290.61523 A 46.999998 76.047601 0 0 0 320.20898 269.88477 A 46.999998 76.047601 0 0 0 342 278.61523 A 46.999998 76.047601 0 0 0 366.08594 267.77344 A 46.999998 76.047601 0 0 0 397 286.61523 A 46.999998 76.047601 0 0 0 444 210.56641 A 46.999998 76.047601 0 0 0 397 134.51953 A 46.999998 76.047601 0 0 0 372.91406 145.36133 A 46.999998 76.047601 0 0 0 342 126.51953 z M 180.25 247.51953 A 9.7499995 16.249999 0 0 0 170.5 263.76953 A 9.7499995 16.249999 0 0 0 180.25 280.01953 A 9.7499995 16.249999 0 0 0 190 263.76953 A 9.7499995 16.249999 0 0 0 180.25 247.51953 z M 149.5 281.01953 A 6.4999999 9.7499995 0 0 0 143 290.76953 A 6.4999999 9.7499995 0 0 0 149.5 300.51953 A 6.4999999 9.7499995 0 0 0 156 290.76953 A 6.4999999 9.7499995 0 0 0 149.5 281.01953 z "
       transform="scale(0.26458333)"
       id="path4487"
       inkscape:export-xdpi="96"
       inkscape:export-ydpi="96" />
  </g>
</svg>
